<svg width="199" height="78" xmlns="http://www.w3.org/2000/svg">

 <g>
  <title>Layer 1</title>
  <g id="svg_1" fill="#fff">
   <path id="svg_2" d="m3.73001,77.72c-0.78,0 -1.46,-0.12 -2.02,-0.4s-0.96,-0.68 -1.27,-1.24c-0.28,-0.56 -0.44,-1.21 -0.44,-2.05l0,-2.83c0,-0.78 0.16,-1.43 0.47,-1.96c0.31,-0.53 0.78,-0.96 1.37,-1.24c0.59,-0.28 1.34,-0.44 2.18,-0.44c0.72,0 1.37,0.09 1.9,0.31s0.96,0.53 1.27,0.93c0.31,0.4 0.53,0.9 0.62,1.49l-1.71,0.19c-0.09,-0.56 -0.31,-0.96 -0.65,-1.21s-0.81,-0.4 -1.43,-0.4c-0.75,0 -1.31,0.19 -1.65,0.59c-0.37,0.4 -0.56,0.96 -0.56,1.77l0,2.8c0,0.81 0.19,1.4 0.53,1.8s0.9,0.59 1.65,0.59s1.27,-0.19 1.65,-0.59c0.37,-0.4 0.56,-0.96 0.56,-1.68l1.12,0.31c0,0.68 -0.12,1.24 -0.4,1.74s-0.68,0.87 -1.21,1.12s-1.18,0.4 -1.93,0.4l-0.03,0l-0.02,0zm2.43,-2.86l0,-2.15l0.56,0.78l-2.74,0l0,-1.15l3.92,0l0,5.29l-0.93,0l-0.81,-2.74l0,-0.03zm5.06,1.4l4.41,0l0,1.34l-5.81,0l0,-9.92l1.8,0l0,9.61l-0.4,-1.03zm9.18,1.46c-0.93,0 -1.74,-0.16 -2.36,-0.47s-1.15,-0.78 -1.49,-1.37s-0.5,-1.34 -0.5,-2.21l0,-2.05c0,-0.87 0.16,-1.62 0.5,-2.21c0.34,-0.59 0.84,-1.06 1.49,-1.37s1.43,-0.47 2.36,-0.47s1.74,0.16 2.36,0.47c0.65,0.31 1.15,0.78 1.49,1.37s0.5,1.34 0.5,2.21l0,2.05c0,0.87 -0.16,1.59 -0.5,2.21s-0.84,1.06 -1.49,1.37s-1.43,0.47 -2.36,0.47zm0,-1.34c0.87,0 1.49,-0.25 1.93,-0.72s0.62,-1.18 0.62,-2.18l0,-1.74c0,-0.96 -0.22,-1.68 -0.65,-2.18c-0.44,-0.47 -1.06,-0.72 -1.93,-0.72s-1.49,0.25 -1.93,0.72s-0.65,1.18 -0.65,2.18l0,1.74c0,0.96 0.22,1.68 0.65,2.18c0.44,0.47 1.09,0.72 1.93,0.72l0.03,0zm6.24,-8.7l4.2,0c0.68,0 1.24,0.09 1.68,0.28s0.78,0.44 1.03,0.78c0.22,0.34 0.34,0.78 0.34,1.34l0,0.09c0,0.72 -0.22,1.27 -0.68,1.71c-0.47,0.44 -1.09,0.65 -1.9,0.68l0,-0.16c0.93,0 1.65,0.25 2.11,0.62c0.47,0.4 0.68,0.99 0.72,1.8l0,0.12c0,0.9 -0.25,1.55 -0.75,1.96c-0.5,0.44 -1.24,0.65 -2.3,0.65l-4.48,0l0,-9.92l0.03,0.03l0,0.02zm4.02,4.32c0.31,0 0.59,-0.06 0.78,-0.19c0.22,-0.12 0.37,-0.31 0.5,-0.53s0.19,-0.5 0.19,-0.81l0,-0.12c0,-0.5 -0.16,-0.84 -0.44,-1.09c-0.28,-0.22 -0.75,-0.34 -1.34,-0.34l-1.93,0l0,3.05l2.21,0l0.03,0.03zm-0.07,4.35c0.4,0 0.75,-0.06 1.03,-0.16c0.25,-0.09 0.44,-0.28 0.56,-0.5s0.16,-0.53 0.16,-0.9l0,-0.16c0,-0.5 -0.12,-0.9 -0.4,-1.15c-0.25,-0.25 -0.65,-0.37 -1.18,-0.37l-2.33,0l0,3.23l2.18,0l-0.02,0.01zm7.9,-8.67l2.83,0l3.39,9.92l-1.83,0l-2.92,-8.71l-0.06,0l-2.92,8.71l-1.83,0l3.36,-9.92l-0.02,0zm-1.09,6.22l5.01,0l0,1.27l-5.01,0l0,-1.27zm10.07,2.36l4.41,0l0,1.34l-5.81,0l0,-9.92l1.8,0l0,9.61l-0.4,-1.03zm10.67,-8.58l0,9.92l-1.8,0l0,-9.92l1.8,0zm8.24,0l0,1.34l-3.58,0l0.87,-0.78l0,9.36l-1.8,0l0,-9.36l0.87,0.78l-3.54,0l0,-1.34l7.18,0zm7.96,10.04c-1.27,0 -2.24,-0.25 -2.89,-0.75c-0.65,-0.5 -1.03,-1.27 -1.12,-2.36l1.83,-0.06c0.06,0.62 0.31,1.12 0.68,1.43c0.37,0.31 0.9,0.47 1.55,0.47s1.09,-0.12 1.43,-0.4c0.34,-0.25 0.53,-0.62 0.53,-1.09c0,-0.34 -0.09,-0.62 -0.31,-0.84s-0.5,-0.37 -0.84,-0.5c-0.34,-0.12 -0.72,-0.22 -1.12,-0.31c-0.4,-0.09 -0.81,-0.19 -1.24,-0.31c-0.4,-0.12 -0.81,-0.28 -1.15,-0.5s-0.62,-0.5 -0.84,-0.87s-0.31,-0.81 -0.31,-1.4c0,-0.84 0.34,-1.52 1.03,-1.99s1.62,-0.72 2.83,-0.72s2.18,0.25 2.83,0.72s1.03,1.18 1.12,2.08l-1.83,0.16c-0.06,-0.56 -0.25,-0.99 -0.59,-1.27s-0.87,-0.4 -1.55,-0.4c-0.59,0 -1.06,0.12 -1.4,0.37s-0.5,0.59 -0.5,1.03c0,0.37 0.09,0.65 0.31,0.87s0.5,0.37 0.84,0.5c0.34,0.12 0.72,0.25 1.15,0.31c0.4,0.09 0.84,0.19 1.24,0.31s0.78,0.28 1.12,0.5s0.62,0.5 0.84,0.84s0.31,0.81 0.31,1.37c0,0.87 -0.34,1.52 -1.06,2.05c-0.72,0.5 -1.68,0.75 -2.92,0.75l0.03,0.03l0,-0.02zm7.18,-1.46l5.13,0l0,1.34l-6.53,0l0,-9.92l6.47,0l0,1.34l-5.07,0l0.4,-1.03l0,4.69l-0.4,-0.65l4.79,0l0,1.27l-4.79,0l0.4,-0.65l0,4.66l-0.4,-1.03l0,-0.03l0,0.01zm6.78,-8.58l4.04,0c1.06,0 1.83,0.25 2.36,0.75s0.78,1.21 0.78,2.18l0,0.65c0,0.93 -0.28,1.65 -0.81,2.15c-0.53,0.47 -1.31,0.72 -2.36,0.72l-2.33,0l0,-1.27l1.77,0c0.68,0 1.18,-0.12 1.49,-0.4c0.31,-0.28 0.5,-0.72 0.5,-1.27l0,-0.37c0,-0.59 -0.16,-1.06 -0.47,-1.34s-0.81,-0.44 -1.49,-0.44l-2.08,0l0.4,-0.47l0,9.08l-1.8,0l0,-9.95l0,-0.02zm3.85,6.03l1.8,0l1.71,3.89l-1.83,0l-1.68,-3.89zm4.42,-6.03l1.8,0l2.64,8.71l0.03,0l2.61,-8.71l1.83,0l-3.02,9.92l-2.89,0l-3.02,-9.92l0.02,0zm12.18,0l0,9.92l-1.8,0l0,-9.92l1.8,0zm5.91,10.04c-0.87,0 -1.59,-0.16 -2.18,-0.47s-1.06,-0.78 -1.37,-1.37s-0.47,-1.34 -0.47,-2.21l0,-2.18c0,-0.84 0.16,-1.55 0.47,-2.15c0.31,-0.59 0.78,-1.03 1.37,-1.34c0.59,-0.31 1.34,-0.47 2.18,-0.47c1.18,0 2.11,0.25 2.77,0.78c0.65,0.53 1.09,1.31 1.27,2.33l-1.74,0.16c-0.12,-0.68 -0.34,-1.15 -0.72,-1.49c-0.37,-0.31 -0.87,-0.47 -1.49,-0.47c-0.75,0 -1.31,0.22 -1.71,0.65s-0.59,1.12 -0.59,2.02l0,2.08c0,0.93 0.19,1.62 0.56,2.05s0.93,0.68 1.71,0.68c0.68,0 1.18,-0.19 1.55,-0.53s0.59,-0.87 0.72,-1.59l1.74,0.16c-0.16,1.06 -0.56,1.87 -1.24,2.42s-1.62,0.84 -2.83,0.84l0,0.06l0,0.04zm7.09,-1.46l5.13,0l0,1.34l-6.53,0l0,-9.92l6.47,0l0,1.34l-5.07,0l0.4,-1.03l0,4.69l-0.4,-0.65l4.79,0l0,1.27l-4.79,0l0.4,-0.65l0,4.66l-0.4,-1.03l0,-0.03l0,0.01zm10.1,-8.58l3.79,0c1.12,0 1.93,0.25 2.52,0.78s0.84,1.27 0.84,2.27l0,0.72c0,0.96 -0.28,1.68 -0.87,2.21c-0.56,0.5 -1.4,0.75 -2.49,0.75l-2.08,0l0,-1.27l1.65,0c0.68,0 1.21,-0.16 1.52,-0.44c0.31,-0.31 0.5,-0.75 0.5,-1.37l0,-0.4c0,-0.65 -0.16,-1.15 -0.47,-1.43c-0.31,-0.31 -0.84,-0.44 -1.55,-0.44l-1.96,0l0.4,-0.44l0,9.05l-1.8,0l0,-9.98l0,-0.01zm8.86,0l4.04,0c1.06,0 1.83,0.25 2.36,0.75s0.78,1.21 0.78,2.18l0,0.65c0,0.93 -0.28,1.65 -0.81,2.15c-0.53,0.47 -1.31,0.72 -2.36,0.72l-2.33,0l0,-1.27l1.77,0c0.68,0 1.18,-0.12 1.49,-0.4c0.31,-0.28 0.5,-0.72 0.5,-1.27l0,-0.37c0,-0.59 -0.16,-1.06 -0.47,-1.34c-0.31,-0.28 -0.81,-0.44 -1.49,-0.44l-2.08,0l0.4,-0.47l0,9.08l-1.8,0l0,-9.95l0,-0.02zm3.83,6.03l1.8,0l1.71,3.89l-1.83,0l-1.68,-3.89zm9.45,4.01c-0.93,0 -1.74,-0.16 -2.36,-0.47s-1.15,-0.78 -1.49,-1.37s-0.5,-1.34 -0.5,-2.21l0,-2.05c0,-0.87 0.16,-1.62 0.5,-2.21c0.34,-0.59 0.84,-1.06 1.49,-1.37s1.43,-0.47 2.36,-0.47s1.74,0.16 2.36,0.47c0.65,0.31 1.15,0.78 1.49,1.37c0.34,0.59 0.5,1.34 0.5,2.21l0,2.05c0,0.87 -0.16,1.59 -0.5,2.21s-0.84,1.06 -1.49,1.37s-1.43,0.47 -2.36,0.47zm0,-1.34c0.87,0 1.49,-0.25 1.93,-0.72s0.62,-1.18 0.62,-2.18l0,-1.74c0,-0.96 -0.22,-1.68 -0.65,-2.18c-0.44,-0.47 -1.06,-0.72 -1.93,-0.72s-1.49,0.25 -1.93,0.72s-0.65,1.18 -0.65,2.18l0,1.74c0,0.96 0.22,1.68 0.65,2.18c0.44,0.47 1.09,0.72 1.93,0.72l0.03,0zm5.31,-8.7l1.8,0l2.64,8.71l0.03,0l2.61,-8.71l1.83,0l-3.02,9.92l-2.89,0l-3.02,-9.92l0.02,0zm12.22,0l0,9.92l-1.8,0l0,-9.92l1.8,0zm2.05,0l3.92,0c1.43,0 2.46,0.28 3.11,0.87c0.65,0.56 0.96,1.46 0.96,2.7l0,2.77c0,1.24 -0.34,2.15 -0.99,2.7s-1.68,0.87 -3.08,0.87l-3.92,0l0,-9.92l0,0.01zm1.4,8.67l2.15,0c0.93,0 1.62,-0.19 2.02,-0.53s0.59,-0.93 0.59,-1.77l0,-2.83c0,-0.84 -0.19,-1.43 -0.59,-1.77c-0.4,-0.34 -1.09,-0.53 -2.02,-0.53l-2.15,0l0.37,-0.93l0,9.33l-0.37,-0.96l0,-0.01zm9.86,-0.09l5.13,0l0,1.34l-6.53,0l0,-9.92l6.47,0l0,1.34l-5.07,0l0.4,-1.03l0,4.69l-0.4,-0.65l4.79,0l0,1.27l-4.79,0l0.4,-0.65l0,4.66l-0.4,-1.03l0,-0.03l0,0.01zm6.78,-8.58l4.04,0c1.06,0 1.83,0.25 2.36,0.75s0.78,1.21 0.78,2.18l0,0.65c0,0.93 -0.28,1.65 -0.81,2.15c-0.53,0.47 -1.31,0.72 -2.36,0.72l-2.33,0l0,-1.27l1.77,0c0.68,0 1.18,-0.12 1.49,-0.4c0.31,-0.28 0.5,-0.72 0.5,-1.27l0,-0.37c0,-0.59 -0.16,-1.06 -0.47,-1.34c-0.31,-0.28 -0.81,-0.44 -1.49,-0.44l-2.08,0l0.4,-0.47l0,9.08l-1.8,0l0,-9.95l0,-0.02zm3.85,6.03l1.8,0l1.71,3.89l-1.83,0l-1.68,-3.89zm-15.67,-35.72l-0.16,0l0.16,0zm-136.05,0.28l-25.8,-38.27l-17.88,0l0,53.81l12.28,0l0,-40.13l27.02,39.79l0.22,0.34l16.38,0l0,-53.81l-12.22,0l0,38.27zm21.9,-26.43l20.55,0l0,41.97l12.07,0l0,-41.97l20.5,0l0,-11.84l-53.12,0l0,11.84zm132.99,40.95c-3.17,-8.08 -9.51,-13.28 -17.88,-14.67l-0.75,-0.09l-0.31,0c-1.68,-0.16 -3.23,-0.16 -4.57,-0.06c-3.54,0.31 -6.62,1.55 -9.17,2.8c-0.44,0.22 -0.87,0.37 -1.37,0.53c-0.65,0.25 -1.31,0.4 -1.93,0.53c-0.84,0.16 -1.68,0.25 -2.46,0.25l-11.25,0c-7.37,0 -13.34,-6 -13.34,-13.34l0,-3.42c0,-7.37 6,-13.34 13.34,-13.34l11.25,0c7.37,0 13.34,6 13.34,13.34l0,3.39c-0.16,2.83 -0.53,4.32 -1.68,6.44c2.55,-0.4 7.74,-0.9 13.06,0.65c0.62,-2.21 0.96,-4.41 0.96,-6.59l0,-4.35c-0.06,-13.71 -11.16,-24.81 -24.78,-24.81l-13.15,0c-13.62,0 -24.72,11.1 -24.72,24.72l0,4.35c0,13.62 11.1,24.72 24.72,24.72l12.16,0c2.8,0 4.82,-0.25 7.43,-0.96c0.31,-0.09 1.4,-0.4 2.18,-0.72c1.21,-0.5 1.65,-0.68 2.05,-0.9c0.16,-0.06 0.31,-0.16 0.5,-0.22c0,0 0.56,-0.25 0.99,-0.4c1.24,-0.44 2.21,-0.59 3.61,-0.59c3.54,-0.03 6.53,1.15 8.95,3.58l0.22,0.22l13.03,0l-0.4,-1.06l-0.03,0.03l0,-0.03z"/>
  </g>
 </g>
</svg>